<svg xmlns="http://www.w3.org/2000/svg" viewBox="0 0 263.56 228.21"><defs><style>.cls-1{fill:#fcfcfc;}</style></defs><title>logo whiteAsset 10</title><g id="Layer_2" data-name="Layer 2"><g id="Layer_1-2" data-name="Layer 1"><polygon class="cls-1" points="262.85 0 240.94 37.95 239.75 40.01 215.85 81.41 177.57 147.71 175.29 151.66 131.47 151.66 133.75 147.71 153.15 114.13 172.03 81.41 195.94 40.01 197.13 37.95 219.04 0 262.85 0"/><polygon class="cls-1" points="175.58 0 153.67 37.95 65.69 37.95 54.66 57.06 43.86 75.77 0.05 75.77 10.85 57.06 21.88 37.95 43.79 0 175.58 0"/><polygon class="cls-1" points="263.56 151.66 263.5 151.76 252.75 170.37 241.59 189.71 219.36 228.21 87.28 228.21 109.51 189.71 197.77 189.71 208.94 170.37 219.68 151.76 219.74 151.66 263.56 151.66"/><polygon class="cls-1" points="131.83 75.77 131.59 76.18 109.68 114.12 87.95 151.76 77.21 170.37 66.04 189.71 43.82 228.21 0 228.21 22.23 189.71 33.39 170.37 44.13 151.76 65.86 114.12 87.77 76.18 88.01 75.77 131.83 75.77"/></g></g></svg>